<svg width="86" height="26" fill="none" xmlns="http://www.w3.org/2000/svg"><path fill-rule="evenodd" clip-rule="evenodd" d="M.01 20.31c0 3.263 2.936 5.686 6.655 5.686 3.426 0 6.656-2.003 6.656-5.492 0-3.102-2.513-5.331-4.828-7.561C6.504 11.004 4.61 9.033 4.61 6.48c0-2.456 1.044-3.07 2.12-3.07 1.208 0 2.122.84 2.122 3.296 0 .582-.033 1.228-.066 1.712h4.375c0-3.101-2.709-5.46-6.232-5.46-3.262 0-6.427 1.84-6.427 5.169 0 3.36 2.447 5.59 4.763 7.755 2.056 1.939 3.977 3.84 3.977 6.498 0 2.488-1.24 3.167-2.316 3.167-1.24 0-2.317-.84-2.317-3.263 0-.646.033-1.422.066-1.97H.01v-.005Zm20.348 5.363v-6.527l1.435-1.81 4.307 8.336h4.666l-6.102-11.89 4.208-5.234h-.649l-7.862 9.758V-.014h-4.405v25.687h4.405-.003Zm15.247-19.71a2.451 2.451 0 0 0 1.747-.716 2.404 2.404 0 0 0 .7-1.739 2.423 2.423 0 0 0-.424-1.353 2.46 2.46 0 0 0-1.112-.891 2.486 2.486 0 0 0-2.681.546 2.418 2.418 0 0 0-.516 2.663c.189.444.507.823.914 1.089.407.265.885.405 1.372.402Zm2.187 19.71V8.548h-4.404v17.125h4.404Zm13.025 0h4.404v-12.21a4.93 4.93 0 0 0-.315-2.015 4.966 4.966 0 0 0-1.105-1.72 5.023 5.023 0 0 0-1.709-1.137 5.064 5.064 0 0 0-2.026-.362 4.949 4.949 0 0 0-2.797.772 4.878 4.878 0 0 0-1.869 2.2V8.549h-4.404v17.125H45.4V13.008c0-1.842 1.175-3.2 2.741-3.2s2.676 1.357 2.676 3.2v12.665Zm17.399 0h4.404v-12.21a4.927 4.927 0 0 0-.315-2.015 4.967 4.967 0 0 0-1.105-1.72 5.025 5.025 0 0 0-1.709-1.137 5.064 5.064 0 0 0-2.026-.362 4.95 4.95 0 0 0-2.797.772 4.878 4.878 0 0 0-1.87 2.2V8.549h-4.403v17.125h4.404V13.008c0-1.842 1.175-3.2 2.741-3.2s2.675 1.357 2.675 3.2v12.665Zm12.129-8.81a5.698 5.698 0 0 0 3.148-.936 5.616 5.616 0 0 0 2.091-2.511c.431-1.024.546-2.15.33-3.239a5.587 5.587 0 0 0-1.545-2.873 5.675 5.675 0 0 0-2.897-1.539 5.71 5.71 0 0 0-3.271.316 5.647 5.647 0 0 0-2.542 2.064 5.565 5.565 0 0 0-.955 3.115c-.022.74.108 1.478.384 2.167a5.44 5.44 0 0 0 1.218 1.839c.529.524 1.16.937 1.854 1.211a5.545 5.545 0 0 0 2.187.386h-.002Zm0-.203a5.49 5.49 0 0 1-3.028-.91 5.41 5.41 0 0 1-2.008-2.424 5.35 5.35 0 0 1-.31-3.119 5.382 5.382 0 0 1 1.493-2.764 5.468 5.468 0 0 1 2.79-1.477 5.5 5.5 0 0 1 3.15.307 5.44 5.44 0 0 1 2.447 1.989c.599.887.918 1.931.918 2.999a5.188 5.188 0 0 1-.368 2.092 5.23 5.23 0 0 1-1.177 1.776 5.29 5.29 0 0 1-1.792 1.165 5.331 5.331 0 0 1-2.113.365h-.002Zm-2.647-1.695h1.982v-3.643h.27l1.6 3.643h2.124l-1.823-3.783c.383-.106.722-.33.968-.641.245-.31.383-.69.394-1.085a2.048 2.048 0 0 0-.742-1.432 2.088 2.088 0 0 0-1.555-.467h-3.218v7.408Zm2.346-7.203c.65 0 1.125.737 1.125 1.694s-.475 1.664-1.125 1.664h-.364V7.76h.364v.002Z" fill="#000"/></svg>